<?xml version="1.0" ?><svg id="Layer_1" style="enable-background:new 0 0 96 96;" version="1.1" viewBox="0 0 96 96" xml:space="preserve" xmlns="http://www.w3.org/2000/svg" xmlns:xlink="http://www.w3.org/1999/xlink"><style type="text/css">
	.st0{fill:none;stroke:#010000;stroke-width:4;stroke-linecap:round;stroke-miterlimit:10;}
	.st1{fill:none;stroke:#010000;stroke-width:4;stroke-linecap:round;stroke-linejoin:round;stroke-miterlimit:10;}
	.st2{fill:none;stroke:#010000;stroke-width:4;stroke-linejoin:round;stroke-miterlimit:10;}
	.st3{fill:none;stroke:#010000;stroke-width:6;stroke-linecap:round;stroke-linejoin:round;stroke-miterlimit:10;}
	.st4{fill:#010000;}
	.st5{fill:none;stroke:#010000;stroke-width:3.8974;stroke-linejoin:round;stroke-miterlimit:10;}
	.st6{fill:none;stroke:#010000;stroke-width:2;stroke-linecap:round;stroke-linejoin:round;stroke-miterlimit:10;}
	.st7{fill:#010000;stroke:#010000;stroke-width:2;stroke-miterlimit:10;}
	.st8{opacity:0.75;}
	.st9{fill:none;stroke:#010000;stroke-width:2;stroke-linejoin:round;stroke-miterlimit:10;}
	.st10{fill:none;stroke:#010000;stroke-width:6;stroke-linejoin:round;stroke-miterlimit:10;}
	.st11{fill:none;stroke:#010000;stroke-width:3;stroke-linejoin:round;stroke-miterlimit:10;}
	.st12{fill:none;stroke:#010000;stroke-width:3.9497;stroke-linejoin:round;stroke-miterlimit:10;}
	.st13{fill:none;stroke:#010000;stroke-width:1.9008;stroke-linejoin:round;stroke-miterlimit:10;}
	.st14{fill:none;stroke:#010000;stroke-width:1.9935;stroke-linejoin:round;stroke-miterlimit:10;}
	.st15{fill:none;stroke:#010000;stroke-width:4;stroke-miterlimit:10;}
	.st16{fill:none;stroke:#010000;stroke-width:1.9048;stroke-linecap:round;stroke-linejoin:round;stroke-miterlimit:10;}
	.st17{fill:none;stroke:#010000;stroke-width:1.934;stroke-linecap:round;stroke-linejoin:round;stroke-miterlimit:10;}
	.st18{fill:none;stroke:#010000;stroke-width:1.9684;stroke-linecap:round;stroke-linejoin:round;stroke-miterlimit:10;}
	.st19{fill:none;stroke:#010000;stroke-width:1.9343;stroke-linecap:round;stroke-linejoin:round;stroke-miterlimit:10;}
</style><g><path class="st0" d="M90,69.2c0-2.3-1.9-4.2-4.2-4.2H10.2C7.9,65,6,66.9,6,69.2v1.6c0,2.3,1.9,4.2,4.2,4.2h75.6   c2.3,0,4.2-1.9,4.2-4.2V69.2z"/></g><line class="st0" x1="15" x2="20" y1="75" y2="65"/><line class="st0" x1="25" x2="30" y1="75" y2="65"/><line class="st0" x1="35" x2="40" y1="75" y2="65"/><line class="st0" x1="45" x2="50" y1="75" y2="65"/><line class="st0" x1="55" x2="60" y1="75" y2="65"/><line class="st0" x1="65" x2="70" y1="75" y2="65"/><line class="st0" x1="75" x2="80" y1="75" y2="65"/><polyline class="st2" points="14,78 14,84 22,84 22,78 "/><polyline class="st2" points="74,78 74,84 82,84 82,78 "/><polyline class="st12" points="60,45.9 87,45.9 87,57.9 9,57.9 9,45.9 36,45.9 "/><polyline class="st9" points="9.5,46.9 36.5,46.9 38.5,50.9 58.5,50.9 60.5,46.9 87.5,46.9 "/><line class="st9" x1="15" x2="15" y1="46.9" y2="56.9"/><line class="st9" x1="81" x2="81" y1="46.9" y2="56.9"/><polyline class="st9" points="35.5,46 37.5,42 59.5,42 61.5,46 "/><g><path class="st14" d="M54,45.7c0,0.7-0.6,1.3-1.3,1.3h-8.4c-0.7,0-1.3-0.6-1.3-1.3v-1.4c0-0.7,0.6-1.3,1.3-1.3h8.4   c0.7,0,1.3,0.6,1.3,1.3V45.7z"/></g><path class="st15" d="M53.8,9.5c1.8,0.5,3.5,1.5,4.9,2.9c4.5,4.5,4.5,11.8,0,16.3c-2.3,2.3-5.2,3.4-8.2,3.4"/><path class="st15" d="M42.2,31.2c-1.8-0.5-3.5-1.5-4.9-2.9c-4.5-4.5-4.5-11.8,0-16.3c2.3-2.3,5.2-3.4,8.2-3.4"/><g><line class="st15" x1="41.4" x2="43.9" y1="25.1" y2="34.6"/><line class="st15" x1="43.4" x2="35.6" y1="33" y2="35"/></g><g><line class="st15" x1="54.6" x2="52.1" y1="16.9" y2="7.4"/><line class="st15" x1="52.6" x2="60.4" y1="9" y2="7"/></g></svg>